<?xml version="1.0" standalone="no"?>
<!DOCTYPE svg PUBLIC "-//W3C//DTD SVG 20010904//EN"
 "http://www.w3.org/TR/2001/REC-SVG-20010904/DTD/svg10.dtd">
<svg version="1.0" xmlns="http://www.w3.org/2000/svg"
 width="512.000000pt" height="512.000000pt" viewBox="0 0 512.000000 512.000000"
 preserveAspectRatio="xMidYMid meet">
<metadata>
Created by potrace 1.11, written by Peter Selinger 2001-2013
</metadata>
<g transform="translate(0.000000,512.000000) scale(0.100000,-0.100000)"
fill="#000000" stroke="none">
<path d="M1310 4509 c-19 -4 -53 -10 -75 -13 -52 -8 -180 -43 -225 -63 -177
-78 -278 -148 -403 -277 -179 -187 -305 -461 -353 -766 -10 -65 -12 -370 -3
-405 4 -16 10 -48 13 -70 14 -105 94 -335 158 -454 139 -257 315 -487 562
-734 207 -208 420 -386 746 -624 117 -85 561 -373 575 -373 2 0 37 -20 79 -45
42 -25 99 -56 127 -70 l50 -26 87 47 c313 168 756 464 1047 697 667 536 1053
1057 1162 1572 19 85 25 386 10 475 -15 95 -20 117 -39 190 -96 370 -320 666
-616 815 -133 67 -252 104 -397 123 -84 12 -346 7 -420 -7 -170 -33 -334 -100
-463 -188 -105 -72 -258 -235 -317 -336 -27 -47 -52 -86 -55 -87 -3 0 -16 21
-30 47 -96 183 -317 387 -507 469 -32 13 -67 29 -78 34 -35 15 -117 39 -195
56 -83 18 -380 27 -440 13z m397 -169 c221 -37 453 -173 591 -344 79 -98 107
-149 193 -354 70 -168 72 -172 85 -145 7 15 44 104 83 196 78 186 136 279 235
376 203 202 445 292 761 286 266 -6 458 -70 640 -215 262 -209 414 -554 421
-955 4 -242 -36 -403 -163 -652 -63 -125 -157 -268 -250 -384 -121 -149 -364
-401 -498 -516 -33 -29 -73 -64 -90 -78 -16 -14 -95 -77 -175 -139 -208 -162
-368 -273 -695 -481 -102 -65 -264 -155 -280 -155 -33 0 -456 259 -675 412
-894 629 -1390 1234 -1479 1803 -9 62 -7 317 3 370 3 17 9 46 12 65 3 19 8 46
11 60 9 51 73 230 104 292 102 203 262 369 446 462 107 54 231 91 368 109 50
7 286 -2 352 -13z"/>
</g>
</svg>
